<svg xmlns="http://www.w3.org/2000/svg" xml:space="preserve" width="449.649" height="440.801" viewBox="0 0 118.97 116.629"><g style="display:inline"><path d="M114.735 45.99a8 8 0 0 0-.79.016c-5.018.294-9.051 5.378-8.377 10.324.06 3.63.784 7.203.829 10.81-.124.577-.625.537-1.114.585-12.46 1.732-24.249 7.455-33.642 15.757-.523.017-1.096-.003-1.398-.496-3.478-3.202-6.297-7.17-10.33-9.729-4.05-2.136-9.694-.55-11.822 3.567-2.2 3.77-1.198 9.057 2.284 11.714 2.565 2.176 5.525 3.813 8.183 5.869.555.412 1.16.803 1.65 1.272.046.618.557 1.264.004 1.79-5.35 9.197-8.611 19.668-8.96 30.327-.103 2.683-.024 5.37.182 8.046-.221.512-.866.242-1.294.416-4.107.64-8.356.677-12.314 2.052-3.782 1.623-6.118 6.048-5.24 10.075.749 4.43 5.282 7.801 9.744 7.223 3.104-.302 5.966-1.617 8.949-2.415 1.284-.374 2.542-.863 3.838-1.06 4.175 11.56 11.852 21.778 21.646 29.178.792.667 1.75 1.222 2.453 1.94.107.354.179.745-.156.997-2.135 3.667-4.74 7.095-6.382 11.027-1.313 4.286.848 9.514 5.108 11.187 4.674 2.116 10.867-.58 12.39-5.508 1.341-3.289 2.327-6.741 3.85-9.942.398-.515.947-.042 1.46.06 12.04 3.766 25.216 3.913 37.292.213.618-.124 1.249-.501 1.852-.49.454.135.679.491.757.938 1.568 3.915 2.604 8.088 4.8 11.721 2.805 3.853 8.795 4.907 12.673 2.077 3.976-2.668 4.979-8.602 2.435-12.581-1.764-3.116-3.894-6.08-5.545-9.202-.126-.578.243-.854.712-1.118 9.775-7.091 17.858-16.717 22.389-27.97.426-.873.606-1.825 1.203-2.584 4.352 1.083 8.507 3.043 13 3.59 4.318.174 8.672-3.032 9.321-7.396.874-4.396-1.983-9.308-6.409-10.38-3.07-.875-6.293-.899-9.423-1.455-.89-.116-1.8-.188-2.672-.382-.501-.29-.368-.77-.32-1.254.227-4.032.31-8.126-.407-12.112a5.5 5.5 0 0 0-.476-1.058c4.399-2.912 8.75-5.894 12.967-9.066 3.043-2.45 6.028-5.423 7.04-9.319.958-4.338-1.642-9.336-6.012-10.573-1.807-.567-3.755-.512-5.597-.154-2.169-.816-4.507-1.143-6.818-1.05-1.651.12-3.264.416-4.838.848 2.157-1.48 4.3-2.979 6.26-4.712 3.248-3.479 3.228-9.608-.361-12.845-3.096-3.012-8.576-3.38-11.792-.354-3.394 2.726-6.164 6.149-9.406 9.023-.38-.007-.874.26-1.103-.18-5.756-4.99-12.25-9.204-19.404-11.888-4.739-1.84-9.7-3.084-14.73-3.793-.588-.451-.25-1.151-.256-1.768.313-4.266 1.148-8.564.605-12.85-.89-3.844-4.555-6.842-8.488-6.958z" style="display:inline;fill:#fff;fill-opacity:1;stroke:#334862;stroke-width:.722052;stroke-dasharray:none;stroke-opacity:1" transform="translate(-23.074 -32.848)scale(.72017)"/><path d="M80.542 202.902c-.949-.166-1.78-.589-2.52-1.28-.947-.887-1.365-1.832-1.447-3.278-.078-1.362.136-2.244.812-3.342.507-.824 5.539-8.96 6.136-9.921.455-.733.468-.9.116-1.557-.29-.542-.348-1.413-.131-1.984.178-.47.087-.572-1.406-1.57-7.64-5.11-14.605-12.624-19.012-20.511-1.599-2.86-3.233-6.516-4.253-9.513-.373-1.098-.48-1.283-.768-1.338-1.149-.22-1.581-.383-1.947-.737-.225-.216-.478-.394-.563-.394-.133 0-2.078.596-10.784 3.3-2 .62-3.069.771-4.121.58-1.641-.297-2.85-1.197-3.565-2.653-.333-.678-.372-.9-.368-2.097.004-1.18.047-1.427.37-2.092.407-.837 1.373-1.818 2.213-2.247.95-.484 1.884-.65 7.656-1.35 7.43-.903 6.685-.742 7.119-1.543.325-.6.786-1.095 1.556-1.67.244-.182.259-.283.157-1.071-.372-2.902-.483-7.225-.262-10.241.724-9.856 3.535-18.734 8.623-27.232.858-1.433 1.275-2.252 1.197-2.353-.065-.085-.32-.451-.565-.814-.424-.626-.443-.706-.376-1.562l.07-.903-1.096-.853c-1.237-.962-6.16-4.437-8.602-6.072-.888-.594-1.89-1.387-2.226-1.76-2.318-2.579-1.725-6.307 1.252-7.875.645-.34.845-.376 2.053-.376 1.199 0 1.412.038 2.03.364 1.086.572 2.167 1.57 5.4 4.99 3.901 4.124 5.937 6.017 6.336 5.892.8-.25 1.652-.23 2.203.05.305.156.64.283.746.283s.94-.656 1.852-1.457c2.622-2.301 4.564-3.816 6.802-5.304 2.672-1.776 4.381-2.748 7.545-4.289 5.57-2.713 12.176-4.67 18.073-5.355 2.455-.285 2.312-.232 2.417-.89.113-.705.478-1.3 1.013-1.648.226-.147.444-.393.484-.546.086-.334-.13-3.253-.48-6.482-.83-7.67-.745-8.676.887-10.439 1.693-1.829 4.156-2.047 6.145-.546.38.287.883.81 1.116 1.163.901 1.36.986 2.421.552 6.877-.424 4.35-.645 6.794-.74 8.19-.083 1.243-.074 1.307.22 1.54.682.542 1.06 1.033 1.2 1.561.258.972.198.94 2.213 1.18 3.525.419 5.844.908 9.825 2.074 8.2 2.402 15.79 6.667 22.49 12.637.92.82 1.81 1.556 1.977 1.635.243.116.424.084.91-.158.614-.307 1.25-.327 2.26-.07.382.097.574-.08 5.356-4.923 6.11-6.19 6.56-6.516 8.809-6.368 1.698.111 3.224 1.175 3.954 2.756.3.65.35.94.345 1.968-.013 2.289-.805 3.464-3.592 5.327-3.068 2.052-7.992 5.54-9.077 6.428l-.638.523.085.834c.157 1.527-.227 1.966-3.896 4.458-2.695 1.83-4.474 3.198-6.7 5.149-2.04 1.79-2.538 2.353-3.263 3.7-.538 1.001-.96 1.45-6.138 6.538-3.058 3.005-5.615 5.464-5.683 5.464-.071 0-.14-1.72-.163-4.083-.042-4.258-.16-5.514-.76-8.07a28 28 0 0 0-.607-2.163c-.303-.892-.307-.945-.082-1.163.292-.282 4.125-3.302 7.37-5.807 1.335-1.03 2.43-1.957 2.433-2.059.009-.344-3.215-3.154-5.498-4.791-5.45-3.909-11.315-6.465-17.896-7.798-2.418-.49-3.64-.635-3.757-.444-.048.077-.02 1.456.061 3.064.086 1.681.099 2.99.032 3.076-.087.11-.351.101-1.001-.035-2.478-.52-6.088-.536-8.679-.04-.734.14-1.378.21-1.432.157-.055-.055-.046-.882.019-1.84.28-4.136.281-4.354.043-4.446-.515-.197-5.444.78-8.301 1.647-4.796 1.453-9.667 3.958-14.03 7.213-1.664 1.243-4.885 4.027-4.885 4.223 0 .07.44.476.98.9l4.966 3.906c2.192 1.723 4.017 3.218 4.057 3.322s-.083.712-.272 1.351c-.952 3.204-1.164 5.02-1.164 10.005 0 3.186-.034 3.942-.177 3.942-.098 0-3.516-3.283-7.597-7.296-4.08-4.013-7.49-7.296-7.578-7.296-.338 0-2.632 4.258-3.783 7.024-2.548 6.122-3.99 14.552-3.505 20.497.188 2.308.22 2.466.514 2.466.232 0 5.787-1.568 7.59-2.143 2.598-.828 7.22-2.128 7.327-2.061.063.038.114 2.896.114 6.349v6.279l-.502.126c-.276.07-.713.16-.97.2-2.25.349-11.204 2.01-11.294 2.095-.262.247 1.157 3.874 2.644 6.76 2.39 4.636 4.87 8.058 8.385 11.575 2.868 2.869 7.165 6.283 7.488 5.95.065-.068.485-.954.933-1.97 1.068-2.42 1.455-3.172 1.633-3.172.08 0 .754.578 1.497 1.285a31 31 0 0 0 5.548 4.185c.828.488 1.505.93 1.506.982 0 .051-.392.888-.871 1.86-.671 1.36-.837 1.807-.72 1.947.3.362 4.675 1.571 7.682 2.124 2.928.537 5.109.733 8.186.735 3.179 0 4.671-.119 7.678-.616 3.133-.518 8.078-1.832 8.412-2.235.107-.129-.063-.614-.661-1.885-.443-.942-.786-1.805-.764-1.918s.75-.635 1.616-1.16c2.155-1.305 3.51-2.337 5.298-4.03.895-.848 1.567-1.389 1.638-1.318.066.066.618 1.258 1.227 2.648.608 1.39 1.166 2.548 1.24 2.572.172.057 3.244-2.223 4.84-3.591 1.603-1.375 4.612-4.503 6.018-6.258 2.84-3.543 5.67-8.486 7.154-12.494.793-2.141.794-2.136-.38-2.31-1.47-.217-11.704-2.079-11.818-2.15-.068-.042-.125-.696-.125-1.454 0-1.143.04-1.412.235-1.583.128-.114 1.469-.929 2.978-1.811s3.857-2.275 5.216-3.094c1.359-.82 2.503-1.489 2.543-1.488s1.006.265 2.148.587c1.549.437 2.113.547 2.226.434.084-.084.221-.98.305-1.992.084-1.01.183-1.915.22-2.008s.472-.406.967-.697c1.545-.907 4.263-2.634 7.374-4.686 1.722-1.135 3.043-1.923 3.11-1.855.502.5.536 10.896.044 13.318-.065.319.011.413.681.841.609.39.82.624 1.09 1.215q.335.731.626.798c.379.086 4.497.624 8.725 1.14 1.841.224 3.702.497 4.136.607 1.648.416 2.867 1.4 3.534 2.849.29.631.348.951.347 1.897-.003 1.518-.374 2.484-1.31 3.415-1.179 1.173-2.774 1.668-4.5 1.398-1.018-.16-.76-.086-5.018-1.447-6.49-2.075-7.861-2.476-8.03-2.35-.95.71-1.344.905-1.944.962-.772.074-.823.124-1.14 1.101-.36 1.116-1.807 4.525-2.801 6.607-4.377 9.161-11.074 16.936-20.196 23.448l-1.848 1.319.09 1.023c.078.898.053 1.093-.208 1.605-.28.548-.285.608-.087 1.022.115.243 1.398 2.356 2.851 4.697 3.838 6.184 3.918 6.321 4.15 7.117.146.506.194 1.082.155 1.89-.07 1.45-.49 2.395-1.45 3.259-.992.89-1.741 1.204-3.03 1.267-1.354.067-2.259-.176-3.263-.873-1.024-.712-1.684-1.763-2.46-3.919-1.056-2.93-2.97-8.146-3.428-9.338-.363-.944-.476-1.115-.78-1.174-1.021-.2-1.43-.415-1.825-.96-.24-.33-.518-.563-.679-.568-.15-.004-1.174.294-2.276.664-3.879 1.302-8.192 2.258-12.445 2.76-2.775.328-9.586.328-12.45 0-4.481-.511-8.696-1.442-12.715-2.808-1.177-.4-2.21-.699-2.298-.665-.087.033-.32.293-.516.576-.363.524-1.03.937-1.511.937-.147 0-.387.106-.535.234-.239.209-1.918 4.54-3.984 10.275-.76 2.11-1.001 2.599-1.629 3.293-1.101 1.22-3 1.876-4.608 1.595" style="display:inline;fill:#3a6ed7" transform="translate(-23.074 -32.848)scale(.72017)"/><g style="display:inline"><g style="display:inline"><path d="M114.566 93.179c-1.54 0-3.089.084-3.93.255a20.17 20.17 0 0 0-15.114 13.417c-1.017 3.08-1.17 4.522-1.172 10.981l-.002 5.094-1.054.431c-2.204.902-3.961 2.544-4.967 4.642-.98 2.048-.978 2.022-.993 10.576-.015 8.423.03 9.06.868 12.232.694 2.627 2.138 5.875 3.548 7.983.833 1.243 2.758 3.534 3.893 4.633 4.112 3.977 9.638 6.646 15.324 7.401 1.903.253 5.921.194 7.746-.115 3.69-.623 7.135-1.873 9.905-3.595 4.633-2.88 8.56-7.307 10.651-12.01 1.569-3.527 2.239-6.359 2.425-10.242.101-2.108.07-2.155-1.046-1.595-1.417.71-5.568 2.931-7.147 3.823-3.243 1.832-4.496 2.246-8.052 2.658-2.8.325-3.452.441-5.05.9-.985.283-1.347.327-2.076.253-2.198-.224-3.848-1.802-4.313-4.128-.215-1.075.09-2.306.82-3.312.846-1.164 2.679-3.936 3.761-5.689 1.583-2.563 2.887-3.803 7.083-6.736a100 100 0 0 0 3.816-2.835c1.03-.813 2.851-2.185 4.046-3.049s2.174-1.641 2.176-1.727-.208-.227-.466-.312c-.301-.1-.491-.259-.532-.446-.036-.16-.087-2.85-.115-5.98-.046-5.261-.072-5.79-.344-7.014-1.015-4.57-2.87-8.027-5.88-10.953-2.809-2.73-6.069-4.465-9.93-5.283-.808-.172-2.34-.258-3.88-.258" style="display:inline;fill:#334862" transform="translate(-23.074 -32.848)scale(.72017)"/><path d="M112.977 127.397c-17.166-.003-17.28 0-18.018.276-.983.368-2.103 1.397-2.552 2.347-.216.456-.395 1.151-.474 1.833-.172 1.5-.162 12.453.013 14.171.448 4.39 1.98 8.174 4.813 11.896 1.51 1.98 3.47 3.7 6.012 5.273 2.19 1.355 3.69 2.003 5.898 2.55 2.48.613 3.054.677 5.961.671 2.391-.005 3.017-.05 4.184-.303 4.82-1.047 8.72-3.179 12.077-6.604 1.889-1.928 3.848-5.015 4.872-7.679.497-1.292 1.13-4.115 1.253-5.588.073-.86.115-1.127.084-1.11-1.4.749-2.816 1.518-3.599 1.96-3.243 1.832-4.496 2.246-8.052 2.658-2.8.325-3.452.441-5.05.9-.985.283-1.347.327-2.075.253-2.2-.224-3.849-1.802-4.314-4.128-.215-1.075.09-2.306.82-3.312.846-1.164 2.679-3.936 3.761-5.689 1.583-2.563 2.887-3.803 7.083-6.736a100 100 0 0 0 3.816-2.835c.293-.23.65-.507 1.037-.804l-.275.003zM114.488 101.503c-1.08.001-2.163.08-2.797.238-2.011.496-4.425 1.966-5.933 3.612-1.266 1.383-2.207 3.18-2.728 5.211-.259 1.008-.288 1.566-.346 6.475-.045 3.872-.02 5.451.09 5.657l.153.285 11.675-.034 11.675-.035.038-4.953c.043-5.578-.04-6.607-.697-8.536-1.288-3.789-4.486-6.735-8.345-7.69-.627-.155-1.705-.23-2.785-.23" style="display:inline;fill:#3a6ed7" transform="translate(-23.074 -32.848)scale(.72017)"/><path d="M119.074 137.02c-.477-.414-1.798-1.176-2.599-1.445-.595-.2-1.168-.28-2.008-.278-1.973.002-3.125.408-4.59 1.872-1.36 1.358-1.887 2.62-1.976 4.327-.12 2.31.493 3.857 2.12 5.346.786.718 1.062 1.057 1.062 1.306 0 .185-.33 1.996-.734 4.023-.6 3.02-.709 3.772-.602 4.158.168.61.608 1.015 1.273 1.173.292.07 2.047.106 3.899.082 3.688-.047 3.856-.082 4.27-.882.273-.529.242-1.25-.132-3.117a89 89 0 0 1-.468-2.661 7 7 0 0 1-.265-.023c-2.2-.224-3.849-1.802-4.314-4.128-.215-1.075.09-2.306.82-3.312.846-1.164 2.679-3.936 3.761-5.689q.244-.395.483-.752" style="display:inline;fill:#334862" transform="translate(-23.074 -32.848)scale(.72017)"/></g><path d="M117.91 146.808c-.165-.165-.268-.446-.268-.732 0-.387.13-.595.77-1.239.423-.425 1.095-1.316 1.492-1.978 1.517-2.53 2.985-4.63 3.82-5.465 1.043-1.043 3.095-2.552 3.341-2.458.098.038.83 1.143 1.627 2.456a281 281 0 0 0 2.505 4.044c.58.91 1.027 1.724.995 1.807-.088.231-2.013 1.293-3.227 1.78-1.17.469-3.027.83-6.102 1.185-1.113.128-2.356.361-2.914.546-1.186.392-1.688.405-2.04.054m15.833-6.392c-1.337-2.067-3.975-6.318-4.234-6.822l-.22-.429.903-.717c2.774-2.202 7.83-5.897 12.216-8.93 8.104-5.6 8.541-5.894 8.798-5.894.071 0 1.115 1.581 2.319 3.514a424 424 0 0 0 3.443 5.442c1.014 1.56 1.22 1.959 1.078 2.088-.242.22-8.163 4.975-12.157 7.299-3.691 2.147-10.683 5.888-11.005 5.888-.121 0-.607-.612-1.141-1.44m26.963-14.123c-.333-.445-2.383-3.682-4.981-7.862-.8-1.286-1.457-2.461-1.461-2.61-.005-.2.324-.486 1.236-1.075a3923 3923 0 0 0 10.27-6.662 745 745 0 0 1 8.199-5.22c2.816-1.767 5.12-3.275 5.12-3.349 0-.193-2.07-.006-3.614.327-3.224.695-7.107 2.547-11.816 5.636l-2.244 1.472-.2.685c-.268.915-.907 2.005-1.366 2.33-.63.447-1.604.698-3.026.78-2.103.12-2.85-.272-2.579-1.355.363-1.443 7.837-7.146 13.132-10.018 2.353-1.277 3.784-1.898 6.158-2.672 2.706-.882 3.897-1.076 6.09-.994 1.895.071 2.575.219 4.15.9l.871.376 1.004-.263c1.335-.35 3.257-.296 4.18.12 2.428 1.093 3.502 4.141 2.336 6.634-1.168 2.496-4.205 5.383-9.461 8.994-5.637 3.874-20.15 13.447-21.39 14.111-.246.131-.325.094-.608-.285" style="display:inline;fill:#334862;fill-opacity:1" transform="translate(-23.074 -32.848)scale(.72017)"/></g></g></svg>